<svg xmlns="http://www.w3.org/2000/svg" xmlns:xlink="http://www.w3.org/1999/xlink" width="500" zoomAndPan="magnify" viewBox="0 0 375 374.999991" height="500" preserveAspectRatio="xMidYMid meet" version="1.0"><defs><clipPath id="fdb7b6b975"><path d="M 0 8.4375 L 371 8.4375 L 371 366.9375 L 0 366.9375 Z M 0 8.4375 " clip-rule="nonzero"/></clipPath></defs><g clip-path="url(#fdb7b6b975)"><path fill="#ffffff" d="M 190.816406 366.382812 C 182.253906 366.394531 173.558594 365.757812 165.019531 364.527344 C 131.140625 359.648438 99.707031 345.425781 73.898438 323.332031 L 8.28125 334.246094 C 5.773438 334.660156 3.242188 333.632812 1.734375 331.582031 C 0.226562 329.535156 0.00390625 326.8125 1.148438 324.539062 L 30.019531 267.417969 C 13.460938 234.753906 7.488281 198.339844 12.738281 161.871094 C 18.898438 119.105469 40.421875 80.027344 73.351562 51.839844 C 105.960938 23.925781 147.4375 8.550781 190.140625 8.550781 C 198.710938 8.550781 207.386719 9.175781 215.929688 10.40625 L 216 10.414062 C 263.402344 17.242188 305.347656 42.105469 334.125 80.433594 C 362.902344 118.757812 375.003906 165.859375 368.207031 213.0625 C 362.046875 255.824219 340.523438 294.898438 307.59375 323.089844 C 274.988281 351.007812 233.511719 366.382812 190.816406 366.382812 Z M 75.933594 309.398438 C 77.574219 309.398438 79.171875 309.996094 80.417969 311.101562 C 104.691406 332.65625 134.613281 346.507812 166.941406 351.164062 C 174.839844 352.300781 182.867188 352.878906 190.800781 352.878906 C 190.808594 352.878906 190.8125 352.878906 190.816406 352.878906 C 272.691406 352.878906 343.203125 291.945312 354.84375 211.136719 C 361.125 167.511719 349.933594 123.972656 323.328125 88.539062 C 296.710938 53.089844 257.914062 30.09375 214.089844 23.78125 L 214.019531 23.769531 C 206.097656 22.628906 198.066406 22.050781 190.136719 22.050781 C 108.261719 22.050781 37.738281 82.988281 26.101562 163.796875 C 21.09375 198.574219 27.132812 233.296875 43.5625 264.210938 C 44.59375 266.148438 44.617188 268.464844 43.628906 270.421875 L 19.207031 318.738281 L 74.828125 309.488281 C 75.195312 309.429688 75.566406 309.398438 75.933594 309.398438 Z M 247.25 290.648438 C 234.925781 290.648438 218.519531 286.144531 194.054688 276.046875 C 162.558594 263.058594 131.324219 235.878906 106.109375 199.515625 C 105.683594 198.90625 105.390625 198.472656 105.222656 198.25 C 105.207031 198.230469 105.164062 198.171875 105.144531 198.152344 L 104.933594 197.859375 C 96.859375 186.90625 83.316406 165.121094 83.316406 142.273438 C 83.316406 115.507812 96.757812 101.914062 102.496094 96.109375 L 102.929688 95.671875 C 108.804688 89.691406 115.351562 86.660156 122.386719 86.660156 C 138.203125 86.660156 150.894531 102.183594 157.5 116.710938 C 163.78125 130.527344 167.664062 150.625 157.929688 161.78125 C 156.773438 163.113281 155.660156 164.285156 154.585938 165.421875 C 153.199219 166.890625 151.886719 168.277344 150.570312 169.898438 C 150.535156 169.941406 150.5 169.984375 150.460938 170.027344 L 150.328125 170.183594 C 149.792969 170.808594 149.007812 171.726562 148.773438 172.199219 C 148.8125 172.328125 148.910156 172.578125 149.132812 172.960938 C 152.644531 178.878906 162.34375 194.050781 175.808594 205.984375 C 192.664062 220.917969 206.277344 226.390625 212.820312 229.019531 C 213.429688 229.265625 213.972656 229.484375 214.449219 229.679688 C 215.214844 230 216.039062 230.167969 216.816406 230.167969 C 217.402344 230.167969 218.476562 230.0625 219.132812 229.367188 C 222.167969 226.109375 226.050781 220.675781 230.160156 214.921875 L 232.058594 212.265625 C 236.425781 206.125 241.808594 204.828125 245.558594 204.828125 C 247.707031 204.828125 249.953125 205.257812 252.230469 206.101562 C 293.234375 220.308594 300.925781 238.402344 300.160156 251.082031 C 298.992188 270.375 277.867188 285.199219 258.582031 289.351562 C 255.605469 289.984375 252.050781 290.648438 247.25 290.648438 Z M 116 190.117188 C 116.277344 190.488281 116.632812 191 117.203125 191.824219 C 140.957031 226.074219 170.078125 251.554688 199.203125 263.566406 C 221.652344 272.832031 236.917969 277.148438 247.25 277.148438 C 250.75 277.148438 253.375 276.652344 255.761719 276.148438 C 270.113281 273.058594 285.976562 261.917969 286.679688 250.269531 C 287.355469 239.089844 273.164062 227.636719 247.734375 218.835938 C 247.679688 218.816406 247.625 218.796875 247.570312 218.777344 C 246.796875 218.484375 246.101562 218.332031 245.554688 218.332031 C 245.152344 218.332031 244.308594 218.332031 243.046875 220.113281 L 241.144531 222.769531 C 236.769531 228.890625 232.640625 234.671875 228.980469 238.601562 C 225.886719 241.882812 221.578125 243.667969 216.816406 243.667969 C 214.285156 243.667969 211.679688 243.144531 209.28125 242.15625 C 208.835938 241.972656 208.339844 241.773438 207.78125 241.546875 C 201.101562 238.863281 185.457031 232.574219 166.855469 216.089844 C 152.496094 203.367188 142.292969 187.894531 137.492188 179.800781 C 132.167969 170.648438 137.699219 164.175781 140.0625 161.410156 L 140.140625 161.320312 C 141.757812 159.332031 143.292969 157.710938 144.777344 156.140625 C 145.804688 155.058594 146.773438 154.035156 147.75 152.910156 C 152.015625 148.019531 150.921875 134.863281 145.207031 122.300781 C 139.1875 109.058594 130.015625 100.160156 122.386719 100.160156 C 119.109375 100.160156 115.800781 101.835938 112.550781 105.136719 L 112.09375 105.601562 C 107.136719 110.617188 96.816406 121.054688 96.816406 142.269531 C 96.816406 156.140625 103.738281 173.480469 115.800781 189.851562 Z M 116 190.117188 " fill-opacity="1" fill-rule="nonzero"/></g><path fill="#ffffff" d="M 7.171875 334.335938 C 5.046875 334.335938 3.019531 333.332031 1.734375 331.582031 C 0.226562 329.53125 0.00390625 326.808594 1.148438 324.539062 L 47.878906 232.078125 C 49.558594 228.75 53.621094 227.417969 56.949219 229.097656 C 60.277344 230.78125 61.609375 234.839844 59.929688 238.167969 L 19.207031 318.742188 L 111.515625 303.390625 C 115.191406 302.773438 118.671875 305.261719 119.28125 308.941406 C 119.894531 312.617188 117.410156 316.097656 113.730469 316.707031 L 8.28125 334.246094 C 7.910156 334.304688 7.542969 334.335938 7.171875 334.335938 Z M 7.171875 334.335938 " fill-opacity="1" fill-rule="nonzero"/></svg>