<svg xmlns="http://www.w3.org/2000/svg" xmlns:xlink="http://www.w3.org/1999/xlink" width="500" zoomAndPan="magnify" viewBox="0 0 375 374.999991" height="500" preserveAspectRatio="xMidYMid meet" version="1.0"><path fill="#ff3131" d="M 263.230469 268.792969 C 259.792969 268.367188 256.695312 270.835938 256.292969 274.269531 C 255.886719 277.699219 258.335938 280.804688 261.769531 281.207031 C 327.492188 288.949219 362.5 309.792969 362.5 321.875 C 362.5 338.835938 295.925781 362.5 187.5 362.5 C 79.074219 362.5 12.5 338.835938 12.5 321.875 C 12.5 309.792969 47.507812 288.949219 113.230469 281.207031 C 116.65625 280.804688 119.113281 277.699219 118.707031 274.269531 C 118.300781 270.835938 115.207031 268.363281 111.769531 268.792969 C 45.960938 276.542969 0 298.367188 0 321.875 C 0 348.273438 64.40625 375 187.5 375 C 310.59375 375 375 348.273438 375 321.875 C 375 298.367188 329.039062 276.542969 263.230469 268.792969 " fill-opacity="1" fill-rule="evenodd"/><path fill="#ff3131" d="M 186.394531 342.230469 L 282.273438 203.75 C 318.242188 155.804688 313.039062 76.992188 271.144531 35.105469 C 248.507812 12.46875 218.40625 0 186.394531 0 C 154.382812 0 124.28125 12.46875 101.644531 35.105469 C 59.757812 76.992188 54.550781 155.800781 90.375 203.554688 Z M 187.5 75 C 211.625 75 231.25 94.632812 231.25 118.75 C 231.25 142.867188 211.625 162.5 187.5 162.5 C 163.375 162.5 143.75 142.867188 143.75 118.75 C 143.75 94.632812 163.375 75 187.5 75 Z M 187.5 75 " fill-opacity="1" fill-rule="evenodd"/></svg>