<svg xmlns="http://www.w3.org/2000/svg" xmlns:xlink="http://www.w3.org/1999/xlink" width="500" zoomAndPan="magnify" viewBox="0 0 375 374.999991" height="500" preserveAspectRatio="xMidYMid meet" version="1.0"><defs><clipPath id="9de7d44412"><path d="M 0 16 L 371 16 L 371 368.578125 L 0 368.578125 Z M 0 16 " clip-rule="nonzero"/></clipPath></defs><g clip-path="url(#9de7d44412)"><path fill="#00d147" d="M 192.515625 368.617188 C 171.75 368.617188 151.097656 365.273438 130.96875 358.640625 C 121.171875 355.429688 111.683594 351.46875 102.507812 346.765625 C 93.332031 342.0625 84.578125 336.667969 76.25 330.585938 L 52.652344 338.1875 L 11.109375 350.394531 L 25.894531 309.851562 L 33.015625 286.613281 C 25.722656 276.25 19.578125 265.246094 14.574219 253.601562 C 9.257812 241.222656 5.425781 228.402344 3.074219 215.136719 C 0.71875 201.796875 -0.0078125 188.367188 0.894531 174.851562 C 1.210938 170.203125 1.722656 165.574219 2.433594 160.96875 C 3.140625 156.363281 4.039062 151.792969 5.132812 147.261719 C 6.226562 142.730469 7.507812 138.253906 8.976562 133.832031 C 10.449219 129.410156 12.101562 125.058594 13.9375 120.773438 C 15.777344 116.492188 17.789062 112.292969 19.980469 108.179688 C 22.171875 104.066406 24.535156 100.050781 27.0625 96.136719 C 29.59375 92.222656 32.285156 88.421875 35.136719 84.734375 C 37.984375 81.050781 40.984375 77.488281 44.136719 74.054688 C 59.585938 57.207031 78.214844 43.644531 99.507812 33.757812 C 120.769531 23.878906 143.617188 18.15625 167.421875 16.746094 C 192.039062 15.285156 216.613281 18.527344 240.445312 26.382812 C 264.28125 34.234375 285.964844 46.234375 304.894531 62.042969 C 323.195312 77.328125 338.167969 95.511719 349.394531 116.089844 C 360.636719 136.703125 367.554688 158.679688 369.964844 181.410156 C 370.585938 187.242188 370.894531 193.089844 370.894531 198.953125 C 370.894531 204.816406 370.582031 210.664062 369.960938 216.492188 C 369.339844 222.324219 368.410156 228.105469 367.175781 233.835938 C 365.941406 239.566406 364.40625 245.21875 362.570312 250.785156 C 360.734375 256.355469 358.613281 261.8125 356.199219 267.15625 C 353.785156 272.496094 351.09375 277.699219 348.128906 282.757812 C 345.160156 287.8125 341.9375 292.699219 338.453125 297.414062 C 334.964844 302.132812 331.242188 306.648438 327.277344 310.96875 C 311.828125 327.816406 293.199219 341.375 271.90625 351.265625 C 250.644531 361.140625 227.796875 366.867188 203.996094 368.277344 C 200.167969 368.503906 196.339844 368.617188 192.515625 368.617188 Z M 78.253906 318.597656 L 80.492188 320.285156 C 84.496094 323.292969 88.617188 326.132812 92.851562 328.808594 C 97.082031 331.484375 101.417969 333.984375 105.851562 336.3125 C 110.285156 338.640625 114.804688 340.785156 119.410156 342.75 C 124.015625 344.714844 128.691406 346.496094 133.441406 348.085938 C 138.1875 349.675781 142.992188 351.074219 147.851562 352.277344 C 152.714844 353.480469 157.613281 354.492188 162.554688 355.304688 C 167.496094 356.113281 172.464844 356.726562 177.453125 357.140625 C 182.445312 357.554688 187.441406 357.769531 192.449219 357.78125 C 264.308594 357.78125 329.957031 315.265625 352.316406 247.40625 C 366.011719 205.835938 361.609375 161.035156 339.914062 121.261719 C 318.15625 81.375 281.632812 51.320312 237.066406 36.636719 C 145.195312 6.367188 47.417969 51.664062 19.097656 137.613281 C 3.058594 186.296875 11.890625 239.097656 43.332031 282.476562 L 44.910156 284.65625 L 36.089844 313.417969 L 28.582031 334.007812 L 49.539062 327.847656 Z M 78.253906 318.597656 " fill-opacity="1" fill-rule="nonzero"/></g><path fill="#00d147" d="M 101.484375 85.917969 C 102.4375 85.144531 103.421875 84.417969 104.4375 83.730469 C 105.457031 83.042969 106.5 82.402344 107.570312 81.804688 C 108.640625 81.210938 109.738281 80.660156 110.855469 80.160156 C 111.976562 79.65625 113.113281 79.207031 114.273438 78.800781 C 115.429688 78.398438 116.605469 78.046875 117.792969 77.746094 C 118.980469 77.445312 120.179688 77.195312 121.390625 76.996094 C 122.601562 76.800781 123.820312 76.652344 125.042969 76.5625 C 126.265625 76.46875 127.488281 76.429688 128.714844 76.445312 C 129.941406 76.457031 131.164062 76.523438 132.386719 76.644531 C 133.605469 76.761719 134.820312 76.933594 136.023438 77.160156 C 137.230469 77.382812 138.425781 77.660156 139.605469 77.988281 C 140.789062 78.3125 141.953125 78.691406 143.101562 79.121094 C 144.25 79.550781 145.378906 80.027344 146.488281 80.554688 C 147.59375 81.078125 148.679688 81.652344 149.734375 82.273438 C 150.792969 82.890625 151.824219 83.554688 152.824219 84.265625 C 153.824219 84.972656 154.792969 85.726562 155.730469 86.519531 L 159.375 147.867188 C 158.007812 149.328125 156.546875 150.6875 154.992188 151.949219 C 152.425781 154.035156 149.652344 155.796875 146.667969 157.234375 C 143.6875 158.671875 140.582031 159.742188 137.347656 160.449219 C 138.621094 164.800781 140.101562 169.078125 141.792969 173.28125 C 143.488281 177.488281 145.382812 181.597656 147.480469 185.613281 C 149.582031 189.632812 151.871094 193.535156 154.355469 197.328125 C 156.839844 201.117188 159.507812 204.777344 162.351562 208.304688 C 165.199219 211.832031 168.210938 215.210938 171.394531 218.4375 C 174.574219 221.667969 177.902344 224.734375 181.386719 227.632812 C 184.871094 230.535156 188.488281 233.253906 192.238281 235.796875 C 195.992188 238.339844 199.859375 240.695312 203.84375 242.855469 C 205.203125 239.792969 206.90625 236.933594 208.945312 234.273438 C 210.984375 231.617188 213.308594 229.234375 215.914062 227.128906 C 217.207031 226.082031 218.554688 225.113281 219.957031 224.222656 L 280.546875 240.871094 C 281.410156 242.5625 282.152344 244.300781 282.78125 246.09375 C 283.40625 247.886719 283.910156 249.710938 284.292969 251.570312 C 284.675781 253.429688 284.933594 255.304688 285.066406 257.199219 C 285.195312 259.09375 285.199219 260.988281 285.078125 262.878906 C 284.957031 264.773438 284.707031 266.652344 284.332031 268.511719 C 283.960938 270.375 283.464844 272.203125 282.84375 273.996094 C 282.226562 275.789062 281.488281 277.535156 280.636719 279.230469 C 279.785156 280.925781 278.824219 282.558594 277.75 284.125 C 276.679688 285.691406 275.507812 287.179688 274.238281 288.589844 C 272.96875 290 271.609375 291.320312 270.160156 292.546875 C 268.714844 293.777344 267.191406 294.902344 265.59375 295.925781 C 263.996094 296.949219 262.335938 297.863281 260.617188 298.664062 C 258.894531 299.464844 257.128906 300.148438 255.316406 300.714844 C 253.503906 301.277344 251.664062 301.71875 249.792969 302.039062 C 247.921875 302.355469 246.035156 302.550781 244.140625 302.613281 C 242.242188 302.679688 240.351562 302.621094 238.460938 302.433594 C 235.953125 302.007812 233.457031 301.53125 230.972656 301 C 228.472656 300.46875 225.984375 299.882812 223.511719 299.246094 C 221.035156 298.605469 218.578125 297.917969 216.128906 297.175781 C 213.683594 296.4375 211.257812 295.644531 208.84375 294.804688 C 206.429688 293.960938 204.039062 293.070312 201.664062 292.125 C 199.289062 291.183594 196.933594 290.191406 194.601562 289.148438 C 192.265625 288.109375 189.957031 287.019531 187.667969 285.878906 C 185.382812 284.742188 183.117188 283.558594 180.878906 282.324219 C 178.640625 281.089844 176.429688 279.8125 174.246094 278.484375 C 172.0625 277.160156 169.90625 275.789062 167.78125 274.371094 C 165.652344 272.957031 163.554688 271.496094 161.492188 269.992188 C 159.425781 268.488281 157.390625 266.941406 155.390625 265.351562 C 153.390625 263.765625 151.421875 262.132812 149.492188 260.460938 C 147.558594 258.789062 145.660156 257.078125 143.800781 255.328125 C 141.9375 253.578125 140.117188 251.789062 138.332031 249.960938 C 136.542969 248.132812 134.796875 246.269531 133.089844 244.367188 C 131.382812 242.46875 129.714844 240.53125 128.089844 238.5625 C 126.460938 236.589844 124.878906 234.585938 123.335938 232.550781 C 121.792969 230.511719 120.292969 228.445312 118.835938 226.34375 C 117.382812 224.246094 115.96875 222.113281 114.601562 219.957031 C 113.238281 217.796875 111.914062 215.609375 110.640625 213.394531 C 109.367188 211.179688 108.136719 208.941406 106.957031 206.675781 C 105.777344 204.410156 104.640625 202.121094 103.558594 199.808594 C 102.472656 197.492188 101.4375 195.160156 100.449219 192.800781 C 99.460938 190.445312 98.523438 188.070312 97.636719 185.671875 C 96.75 183.277344 95.910156 180.863281 95.125 178.429688 C 94.339844 176 93.601562 173.554688 92.917969 171.09375 C 92.234375 168.628906 91.605469 166.15625 91.023438 163.667969 C 90.441406 161.179688 89.914062 158.679688 89.441406 156.167969 C 88.964844 153.65625 88.542969 151.136719 88.171875 148.609375 C 87.800781 146.082031 87.484375 143.546875 87.222656 141.003906 C 86.957031 138.464844 86.75 135.917969 86.589844 133.367188 C 86.433594 130.816406 86.332031 128.265625 86.28125 125.710938 C 86.277344 125.703125 86.277344 125.699219 86.277344 125.695312 C 86.179688 120.539062 86.300781 115.386719 86.640625 110.238281 C 87.136719 107.859375 87.828125 105.542969 88.71875 103.285156 C 89.613281 101.027344 90.691406 98.863281 91.953125 96.789062 C 93.21875 94.71875 94.652344 92.769531 96.253906 90.945312 C 97.851562 89.117188 99.597656 87.445312 101.484375 85.917969 Z M 101.484375 85.917969 " fill-opacity="1" fill-rule="nonzero"/><path fill="#00d147" d="M 242.75 308.042969 C 241.148438 308.042969 239.542969 307.964844 237.925781 307.804688 L 237.746094 307.785156 L 237.5625 307.757812 C 235.023438 307.328125 232.425781 306.832031 229.847656 306.28125 C 227.292969 305.738281 224.753906 305.144531 222.222656 304.496094 C 219.695312 303.847656 217.183594 303.148438 214.683594 302.394531 C 212.183594 301.644531 209.699219 300.839844 207.234375 299.984375 C 204.769531 299.128906 202.324219 298.21875 199.894531 297.261719 C 197.46875 296.304688 195.058594 295.296875 192.675781 294.238281 C 190.289062 293.179688 187.925781 292.074219 185.585938 290.917969 C 183.246094 289.761719 180.929688 288.558594 178.640625 287.304688 C 176.351562 286.050781 174.089844 284.75 171.851562 283.40625 C 169.617188 282.058594 167.410156 280.664062 165.234375 279.226562 C 163.054688 277.789062 160.910156 276.304688 158.792969 274.777344 C 156.675781 273.246094 154.59375 271.675781 152.542969 270.0625 C 150.492188 268.445312 148.476562 266.789062 146.496094 265.089844 C 144.515625 263.390625 142.570312 261.652344 140.660156 259.871094 C 138.75 258.089844 136.878906 256.273438 135.046875 254.414062 C 133.214844 252.558594 131.417969 250.660156 129.664062 248.730469 C 127.910156 246.796875 126.199219 244.828125 124.523438 242.824219 C 122.851562 240.820312 121.222656 238.785156 119.636719 236.710938 C 118.046875 234.640625 116.503906 232.535156 115.003906 230.398438 C 113.503906 228.265625 112.050781 226.097656 110.640625 223.902344 C 109.230469 221.703125 107.867188 219.480469 106.550781 217.226562 C 105.230469 214.972656 103.960938 212.691406 102.742188 210.386719 C 101.519531 208.082031 100.34375 205.75 99.21875 203.394531 C 98.09375 201.039062 97.019531 198.660156 95.992188 196.261719 C 94.96875 193.863281 93.992188 191.441406 93.066406 189 C 92.140625 186.5625 91.265625 184.101562 90.445312 181.625 C 89.621094 179.148438 88.851562 176.65625 88.128906 174.148438 C 87.410156 171.636719 86.746094 169.113281 86.128906 166.578125 C 85.515625 164.042969 84.957031 161.492188 84.449219 158.933594 C 83.941406 156.371094 83.484375 153.800781 83.085938 151.222656 C 82.683594 148.644531 82.335938 146.058594 82.042969 143.464844 C 81.75 140.871094 81.511719 138.273438 81.324219 135.667969 C 81.140625 133.066406 81.011719 130.460938 80.933594 127.851562 L 80.679688 127.574219 L 80.875 125.492188 C 80.785156 120.308594 80.914062 115.058594 81.253906 109.882812 L 81.28125 109.503906 L 81.355469 109.136719 C 81.6875 107.546875 82.101562 105.976562 82.589844 104.425781 C 83.082031 102.878906 83.652344 101.359375 84.296875 99.867188 C 84.945312 98.378906 85.664062 96.921875 86.457031 95.503906 C 87.253906 94.089844 88.117188 92.714844 89.050781 91.386719 C 89.984375 90.054688 90.984375 88.777344 92.050781 87.550781 C 93.113281 86.320312 94.238281 85.152344 95.421875 84.039062 C 96.605469 82.925781 97.839844 81.875 99.132812 80.886719 C 100.421875 79.898438 101.757812 78.980469 103.144531 78.128906 C 104.527344 77.277344 105.949219 76.5 107.414062 75.792969 C 108.878906 75.085938 110.371094 74.457031 111.898438 73.902344 C 113.425781 73.347656 114.980469 72.875 116.554688 72.476562 C 118.128906 72.082031 119.722656 71.765625 121.332031 71.53125 C 122.9375 71.296875 124.554688 71.148438 126.175781 71.078125 C 127.800781 71.007812 129.421875 71.019531 131.042969 71.117188 C 132.667969 71.210938 134.28125 71.390625 135.882812 71.648438 C 137.488281 71.910156 139.074219 72.25 140.644531 72.671875 C 147.574219 74.507812 153.765625 77.753906 159.226562 82.402344 L 160.980469 83.894531 L 164.902344 149.859375 L 163.316406 151.554688 C 161.78125 153.195312 160.140625 154.726562 158.394531 156.144531 C 154.109375 159.632812 149.363281 162.292969 144.152344 164.125 C 145.398438 167.816406 146.808594 171.449219 148.375 175.019531 C 149.941406 178.585938 151.664062 182.082031 153.542969 185.5 C 155.417969 188.914062 157.441406 192.242188 159.613281 195.480469 C 161.78125 198.71875 164.089844 201.855469 166.539062 204.890625 C 168.984375 207.925781 171.5625 210.847656 174.269531 213.652344 C 176.972656 216.460938 179.796875 219.144531 182.742188 221.699219 C 185.683594 224.257812 188.734375 226.679688 191.890625 228.96875 C 195.046875 231.257812 198.296875 233.398438 201.644531 235.402344 C 204.535156 230.605469 208.15625 226.449219 212.515625 222.933594 C 213.96875 221.757812 215.484375 220.667969 217.0625 219.664062 L 219.082031 218.382812 L 284.273438 236.292969 L 285.355469 238.414062 C 288.539062 244.628906 290.261719 251.226562 290.53125 258.203125 C 290.605469 260.058594 290.574219 261.914062 290.433594 263.769531 C 290.292969 265.621094 290.046875 267.460938 289.691406 269.285156 C 289.339844 271.113281 288.878906 272.910156 288.316406 274.679688 C 287.75 276.453125 287.085938 278.183594 286.320312 279.878906 C 285.554688 281.574219 284.691406 283.214844 283.734375 284.808594 C 282.777344 286.402344 281.730469 287.933594 280.59375 289.40625 C 279.457031 290.878906 278.238281 292.277344 276.941406 293.605469 C 275.640625 294.9375 274.269531 296.183594 272.824219 297.355469 C 270.714844 299.070312 268.476562 300.597656 266.105469 301.929688 C 263.738281 303.265625 261.273438 304.386719 258.710938 305.296875 C 256.148438 306.207031 253.527344 306.894531 250.847656 307.355469 C 248.167969 307.816406 245.46875 308.046875 242.75 308.042969 Z M 239.175781 297.078125 C 239.972656 297.152344 240.773438 297.203125 241.574219 297.226562 C 242.375 297.25 243.175781 297.246094 243.976562 297.21875 C 244.777344 297.191406 245.578125 297.136719 246.375 297.054688 C 247.171875 296.976562 247.964844 296.867188 248.757812 296.738281 C 249.546875 296.605469 250.332031 296.449219 251.113281 296.265625 C 251.894531 296.082031 252.667969 295.875 253.433594 295.644531 C 254.199219 295.410156 254.957031 295.152344 255.710938 294.871094 C 256.460938 294.589844 257.199219 294.285156 257.929688 293.953125 C 258.660156 293.625 259.378906 293.273438 260.085938 292.894531 C 260.796875 292.519531 261.488281 292.121094 262.171875 291.699219 C 262.851562 291.277344 263.519531 290.835938 264.171875 290.371094 C 264.828125 289.90625 265.464844 289.421875 266.085938 288.914062 C 266.707031 288.410156 267.3125 287.882812 267.898438 287.335938 C 268.488281 286.792969 269.054688 286.230469 269.605469 285.648438 C 270.160156 285.066406 270.691406 284.464844 271.203125 283.851562 C 271.714844 283.234375 272.207031 282.601562 272.675781 281.953125 C 273.148438 281.304688 273.597656 280.640625 274.027344 279.964844 C 274.453125 279.285156 274.859375 278.597656 275.246094 277.894531 C 275.628906 277.1875 275.988281 276.472656 276.324219 275.746094 C 276.664062 275.019531 276.976562 274.28125 277.265625 273.535156 C 277.554688 272.789062 277.820312 272.03125 278.0625 271.265625 C 278.300781 270.503906 278.515625 269.730469 278.707031 268.953125 C 278.898438 268.175781 279.0625 267.390625 279.203125 266.601562 C 279.34375 265.8125 279.457031 265.019531 279.542969 264.222656 C 279.632812 263.425781 279.695312 262.628906 279.730469 261.828125 C 279.769531 261.027344 279.777344 260.226562 279.765625 259.425781 C 279.75 258.621094 279.707031 257.824219 279.640625 257.023438 C 279.574219 256.226562 279.480469 255.429688 279.363281 254.636719 C 279.242188 253.84375 279.097656 253.054688 278.929688 252.273438 C 278.757812 251.488281 278.5625 250.714844 278.34375 249.941406 C 278.125 249.171875 277.878906 248.410156 277.609375 247.65625 C 277.339844 246.898438 277.046875 246.152344 276.730469 245.417969 L 220.929688 230.089844 C 220.378906 230.488281 219.839844 230.898438 219.316406 231.324219 C 214.691406 235.046875 211.179688 239.621094 208.777344 245.046875 L 206.410156 250.375 L 201.277344 247.605469 C 197.136719 245.359375 193.117188 242.914062 189.214844 240.273438 C 185.316406 237.628906 181.554688 234.800781 177.9375 231.785156 C 174.316406 228.769531 170.851562 225.585938 167.546875 222.226562 C 164.242188 218.871094 161.109375 215.359375 158.152344 211.695312 C 155.195312 208.027344 152.421875 204.222656 149.839844 200.285156 C 147.257812 196.34375 144.875 192.285156 142.695312 188.109375 C 140.511719 183.9375 138.542969 179.664062 136.78125 175.292969 C 135.023438 170.921875 133.484375 166.476562 132.164062 161.953125 L 130.554688 156.410156 L 136.195312 155.175781 C 141.921875 153.929688 147.054688 151.457031 151.59375 147.753906 C 152.363281 147.128906 153.113281 146.472656 153.839844 145.78125 L 150.480469 89.230469 C 146.671875 86.367188 142.460938 84.324219 137.855469 83.105469 C 136.445312 82.730469 135.015625 82.4375 133.574219 82.230469 C 132.128906 82.023438 130.675781 81.898438 129.21875 81.863281 C 127.761719 81.824219 126.304688 81.875 124.851562 82.007812 C 123.398438 82.144531 121.957031 82.363281 120.53125 82.664062 C 119.105469 82.96875 117.699219 83.355469 116.316406 83.824219 C 114.9375 84.292969 113.585938 84.839844 112.269531 85.464844 C 110.953125 86.09375 109.675781 86.796875 108.441406 87.574219 C 107.207031 88.351562 106.019531 89.195312 104.886719 90.113281 C 103.265625 91.429688 101.765625 92.871094 100.386719 94.4375 C 99.007812 96.003906 97.769531 97.675781 96.675781 99.453125 C 95.578125 101.230469 94.636719 103.085938 93.855469 105.019531 C 93.070312 106.953125 92.453125 108.941406 92.003906 110.980469 C 91.71875 115.472656 91.601562 120.019531 91.660156 124.523438 L 91.679688 125.609375 C 92.421875 165.421875 106.101562 202.863281 131.238281 233.882812 C 156.738281 265.351562 192.558594 287.3125 232.09375 295.71875 C 234.464844 296.222656 236.84375 296.679688 239.175781 297.078125 Z M 239.175781 297.078125 " fill-opacity="1" fill-rule="nonzero"/></svg>